<?xml version="1.0" encoding="utf-8"?>
<!-- Generator: Adobe Illustrator 16.0.0, SVG Export Plug-In . SVG Version: 6.00 Build 0)  -->
<!DOCTYPE svg PUBLIC "-//W3C//DTD SVG 1.1//EN" "http://www.w3.org/Graphics/SVG/1.1/DTD/svg11.dtd">
<svg version="1.1" id="Layer_1" xmlns="http://www.w3.org/2000/svg" xmlns:xlink="http://www.w3.org/1999/xlink" x="0px" y="0px"
	 width="50px" height="50px" viewBox="0 0 50 50" enable-background="new 0 0 50 50" xml:space="preserve">
<g>
	<path fill-rule="evenodd" clip-rule="evenodd" fill="#FFFFFF" d="M25,33.872c1.018-0.009,2.023-0.142,2.71-0.399
		c1.86-0.695,3.241-2.147,4.409-3.702c2.716,2.095,5.952,1.914,9.193,3.604c3.116,1.624,5.156,4.618,6.577,7.748
		c0.565,1.245,0.846,2.319,0.283,2.515C42.696,45.531,31.78,45.709,25,45.711c-6.781-0.002-17.697-0.18-23.173-2.074
		c-0.563-0.195-0.282-1.27,0.283-2.515c1.421-3.13,3.46-6.124,6.577-7.748c3.242-1.689,6.478-1.509,9.193-3.604
		c1.168,1.555,2.55,3.007,4.409,3.702C22.976,33.73,23.982,33.863,25,33.872L25,33.872z M20.431,5.797
		C18.007,5.871,16.6,7.35,15.838,9.149c-0.626,1.483-0.87,3.412-0.769,5.064c-0.846,1.15-0.852,3.276-0.729,4.492
		c0.142,1.393,0.654,3.864,2.018,4.686c0.659,2.697,2.818,5.208,5.35,6.737c1.941,1.173,4.137,1.273,6.184,0.117
		c2.121-1.198,3.982-3.127,4.977-5.28c-0.782,0.503-1.6,0.894-2.459,1.196c-0.854,1.158-1.931,2.1-3.089,2.69
		c-2.002,1.022-3.169,0.968-5.015-0.081c-2.169-1.234-4.066-3.626-4.643-6.392c-0.038-0.185-0.14-0.276-0.307-0.27
		c-0.645,0-1.329-1.598-1.53-3.568c-0.2-1.97,0.16-3.567,0.805-3.567c0.272,0,0.552,0.286,0.799,0.765
		c0.109,0.209,0.203,0.412,0.398,0.556c0.156,0.115,0.313,0.086,0.366-0.437c0.007-0.088,0.018-0.226,0.029-0.393
		c0.049-0.693,0.08-1.625,0.254-2.292c0.066-0.251,0.163-0.494,0.305-0.663c0.266-0.316,0.558-0.228,0.873-0.087
		c1.79,0.8,9.322,2.205,10.998,1.713c0.616-0.181,0.877-0.174,0.893,0.575c0.006,0.256,0.019,1.415,0.095,1.57
		c0.104,0.213,0.291,0.107,0.445-0.078c0.251-0.301,0.423-0.776,0.701-1.148c0.583-0.779,1.196-1.059,1.791-0.886
		c-0.155-1.184-0.598-2.291-1.264-3.264c-0.456-0.724-1.017-1.386-1.661-1.972c-1.858-1.687-4.422-2.731-7.25-2.731
		c-1.562,0-3.045,0.32-4.375,0.893l0.045-0.024c1.573-0.836,3.408-1.316,5.364-1.316c2.891,0,5.511,1.044,7.411,2.732
		c0.594,0.528,1.117,1.119,1.558,1.762c-0.322-1.302-0.901-2.514-1.859-3.391c-3.063-2.803-8.926-3.412-11.417-1.328
		C20.841,5.741,20.844,5.793,20.431,5.797L20.431,5.797z M33.488,23.646c0.06-0.054,0.108-0.125,0.146-0.206
		c-0.31,0.038-0.629,0.016-0.944-0.076c-0.377-0.108-0.531-0.078-0.697-0.452c-0.043,0.157-0.09,0.314-0.141,0.469
		c-1.379,0.899-2.87,1.418-4.539,1.708c-0.189-0.383-0.5-0.679-0.917-0.679h-2.971c-1.465,0-1.465,2.743,0,2.743h2.971
		c0.471,0,0.863-0.36,1.022-0.824c2.089-0.354,3.924-1.045,5.608-2.316C33.227,23.86,33.306,23.798,33.488,23.646L33.488,23.646z
		 M32.902,16.387c-0.548,1.621-0.78,4.372-0.583,5.831c0.029,0.236,0.086,0.446,0.3,0.516c0.237,0.091,0.582,0.208,0.622,0.221
		c0.979,0.33,1.994-0.484,2.153-1.834l0.392-3.311c0.13-1.097-0.089-1.878-0.567-2.477C34.264,14.137,33.356,15.042,32.902,16.387
		L32.902,16.387z"/>
</g>
</svg>
