<?xml version="1.0" encoding="utf-8"?>
<!-- Generator: Adobe Illustrator 16.0.0, SVG Export Plug-In . SVG Version: 6.00 Build 0)  -->
<!DOCTYPE svg PUBLIC "-//W3C//DTD SVG 1.1//EN" "http://www.w3.org/Graphics/SVG/1.1/DTD/svg11.dtd">
<svg version="1.1" id="Layer_1" xmlns="http://www.w3.org/2000/svg" xmlns:xlink="http://www.w3.org/1999/xlink" x="0px" y="0px"
	 width="50px" height="50px" viewBox="0 0 50 50" enable-background="new 0 0 50 50" xml:space="preserve">
<g>
	<path fill="#FFFFFF" d="M12.426,34.773c-0.825-0.826-2.344-0.645-3.391,0.403c-1.046,1.045-1.227,2.563-0.398,3.389l8.592,8.591
		c0.825,0.826,2.344,0.647,3.39-0.4c1.045-1.047,1.226-2.564,0.4-3.39L12.426,34.773z"/>
	<path fill="#FFFFFF" d="M21.925,36.799c-0.091-0.003-0.18-0.008-0.264-0.017h-0.007h-0.007c-0.041-0.005-0.081-0.01-0.12-0.016h0
		c-0.069-0.01-0.138-0.02-0.206-0.032c-0.038-0.007-0.078-0.016-0.117-0.026l-0.015-0.003c-0.074-0.018-0.137-0.033-0.199-0.052
		c-0.042-0.013-0.093-0.028-0.142-0.045c-0.059-0.02-0.123-0.044-0.185-0.068c-0.041-0.016-0.085-0.035-0.129-0.055
		c-0.057-0.024-0.116-0.054-0.175-0.085c-0.042-0.021-0.082-0.04-0.12-0.062c-0.055-0.031-0.119-0.07-0.181-0.11
		c-0.028-0.018-0.06-0.037-0.09-0.058c-0.093-0.065-0.176-0.127-0.253-0.188c-0.012-0.012-0.027-0.023-0.041-0.035
		c-0.071-0.059-0.142-0.124-0.211-0.193c-0.026-0.025-0.055-0.054-0.081-0.084c-0.048-0.05-0.094-0.101-0.14-0.154
		c-0.029-0.034-0.05-0.062-0.07-0.089l-0.01-0.012c-0.045-0.058-0.084-0.11-0.123-0.163c-0.024-0.036-0.049-0.073-0.074-0.112
		c0.002,0.003,0.002,0.005,0.003,0.007l-0.009-0.014c0.002,0.003,0.004,0.006,0.006,0.007c-0.036-0.054-0.071-0.111-0.104-0.17
		l-0.011-0.018c-0.019-0.035-0.038-0.068-0.055-0.103c-0.031-0.058-0.061-0.119-0.088-0.183c-0.019-0.038-0.036-0.077-0.052-0.116
		c-0.026-0.063-0.052-0.135-0.076-0.205c-0.016-0.042-0.026-0.075-0.037-0.109c-0.033-0.109-0.062-0.218-0.083-0.321
		c-0.05-0.242-0.076-0.49-0.076-0.737v-8.832h0.002v-0.02l2.166-0.882l2.617-1.063l0.445-0.179l0.632-0.251
		c1.171-0.47,1.899-1.506,1.859-2.508l-0.004-0.046c-0.003-0.079-0.015-0.157-0.028-0.234l-0.017-0.084
		c-0.021-0.087-0.046-0.177-0.08-0.263l-0.003-0.01l-0.3-0.749l-0.006-0.01c-0.035-0.085-0.077-0.167-0.123-0.246l-0.045-0.07
		c-0.044-0.067-0.09-0.13-0.142-0.191l-0.028-0.036c-0.666-0.753-1.906-0.998-3.078-0.526l-0.63,0.254l-0.445,0.177l-0.623,0.253
		l-6.118,2.487c-1.074,0.431-1.773,1.34-1.853,2.264l-0.006,0.019l-0.315,9.845c-0.018,0.672,0.267,1.222,0.703,1.665l0.024,0.03
		l8.777,8.774c0.84,0.842,2.387,0.658,3.454-0.409l5.538-5.537l-8.807,0.001L21.925,36.799z"/>
	<path fill="#FFFFFF" d="M41.029,3.178c-0.524-0.527-1.255-0.854-2.058-0.854H22.257c-0.802-0.001-1.533,0.327-2.058,0.853
		c-0.526,0.525-0.854,1.256-0.854,2.059v11.938l0.865-0.351l0.623-0.253l0.006-0.002l0.446-0.177l-0.004,0.002l0.631-0.254
		c0.505-0.204,1.028-0.306,1.555-0.306c1.011,0,1.937,0.391,2.539,1.073l0.017,0.018l0.016,0.019l0.021,0.028
		c0.072,0.087,0.138,0.175,0.197,0.267l0.001,0.002l0.046,0.07l0.012,0.018l0.01,0.018c0.061,0.103,0.11,0.202,0.155,0.3l0.01,0.018
		l0.023,0.058l0.3,0.748l0.023,0.059l0.005,0.016c0.041,0.112,0.068,0.217,0.094,0.317l0.007,0.025l0.003,0.024l0.017,0.086
		c0.022,0.121,0.038,0.235,0.044,0.347l0.003,0.043v0.01v0.011c0.027,0.694-0.202,1.412-0.647,2.022
		c-0.438,0.6-1.052,1.071-1.78,1.363l-0.631,0.251l-0.445,0.178l0.004-0.001l-2.616,1.063l-1.548,0.631v8.105
		c0,0.802,0.327,1.533,0.854,2.058c0.525,0.525,1.256,0.854,2.058,0.854h16.715c0.802,0,1.533-0.328,2.058-0.854
		c0.527-0.524,0.855-1.256,0.854-2.058V5.236C41.885,4.434,41.557,3.702,41.029,3.178z M26.438,12.679l-1.191,1.066
		c-0.041,0.036-0.093,0.057-0.145,0.055h-0.839c-0.073,0-0.141-0.037-0.182-0.1c-0.022-0.036-0.035-0.076-0.035-0.117
		c-0.001-0.03,0.007-0.061,0.019-0.088l0.899-1.999l-0.899-1.999c-0.029-0.068-0.024-0.146,0.015-0.208
		c0.041-0.061,0.11-0.1,0.183-0.099l0.837,0c0.054,0,0.105,0.019,0.146,0.055l1.193,1.066l3.384,0.001l-0.826-4.136
		C28.984,6.113,29,6.045,29.041,5.996c0.042-0.051,0.103-0.079,0.168-0.08l1.313,0c0.075,0,0.145,0.04,0.184,0.105l2.601,4.29
		l2.56-0.001l0.001,0.001h0.018c0.702,0.009,1.304,0.505,1.311,1.174v0.012l-0.001,0.01c-0.006,0.674-0.617,1.173-1.326,1.174V12.68
		l-2.561-0.001l-2.602,4.291c-0.039,0.065-0.109,0.105-0.185,0.104h-1.312c-0.065,0-0.127-0.029-0.168-0.08
		c-0.041-0.051-0.058-0.116-0.046-0.178l0.826-4.138L26.438,12.679z M38.556,31.727H22.685c-0.274,0-0.496-0.222-0.496-0.497
		c0-0.272,0.222-0.495,0.496-0.495h15.871c0.272,0,0.495,0.223,0.495,0.496C39.051,31.505,38.828,31.727,38.556,31.727z
		 M38.556,30.01H22.685c-0.274,0-0.496-0.222-0.496-0.496s0.222-0.496,0.496-0.496h15.871c0.273,0.001,0.495,0.223,0.495,0.496
		C39.051,29.788,38.829,30.01,38.556,30.01z M38.556,28.294H22.685c-0.275-0.001-0.496-0.223-0.496-0.496
		c0-0.275,0.221-0.496,0.496-0.496l15.871-0.001c0.273,0.001,0.495,0.223,0.495,0.497C39.051,28.07,38.829,28.293,38.556,28.294z
		 M27.006,19.344v-0.002l-0.001-0.002L27.006,19.344z"/>
</g>
</svg>
