<?xml version="1.0" encoding="utf-8"?>
<!-- Generator: Adobe Illustrator 16.0.0, SVG Export Plug-In . SVG Version: 6.00 Build 0)  -->
<!DOCTYPE svg PUBLIC "-//W3C//DTD SVG 1.1//EN" "http://www.w3.org/Graphics/SVG/1.1/DTD/svg11.dtd">
<svg version="1.1" id="Layer_1" xmlns="http://www.w3.org/2000/svg" xmlns:xlink="http://www.w3.org/1999/xlink" x="0px" y="0px"
	 width="50px" height="50px" viewBox="0 0 50 50" enable-background="new 0 0 50 50" xml:space="preserve">
<g>
	<g>
		<path fill="#FFFFFF" d="M12.299,23.213c-0.277,1.184,0.458,2.367,1.641,2.644l28.306,6.623c1.184,0.277,2.367-0.458,2.645-1.642
			l1.954-8.353L14.253,14.86L12.299,23.213z M39.91,27.043c0.079-0.338,0.417-0.548,0.755-0.469l2.654,0.621
			c0.338,0.079,0.548,0.417,0.469,0.755l-0.621,2.654c-0.079,0.338-0.417,0.548-0.755,0.469l-2.654-0.621
			c-0.338-0.079-0.548-0.417-0.469-0.755L39.91,27.043z"/>
		<path fill="#FFFFFF" d="M46.763,13.174L18.458,6.551c-1.184-0.277-2.367,0.458-2.644,1.642l-0.564,2.409l32.591,7.625l0.563-2.409
			C48.682,14.635,47.946,13.451,46.763,13.174z"/>
	</g>
	<g>
		<path fill="#FFFFFF" d="M30.484,16.32L2.809,24.053c-0.923,0.258-1.465,1.219-1.207,2.142l4.481,16.041
			c0.258,0.923,1.219,1.464,2.143,1.206l27.676-7.732c0.923-0.258,1.465-1.22,1.206-2.143l-4.481-16.04
			C32.369,16.604,31.408,16.063,30.484,16.32z M33.972,24.268l-0.501,0.14l2.638,9.438c0.104,0.372-0.114,0.759-0.486,0.863
			L7.946,42.442c-0.372,0.104-0.758-0.114-0.862-0.486l-2.637-9.438l-0.5,0.14L2.94,29.057l0.5-0.14l-0.838-3
			c-0.104-0.372,0.114-0.759,0.485-0.863l27.677-7.733c0.371-0.104,0.758,0.114,0.862,0.486l0.838,3l0.5-0.14L33.972,24.268z"/>
		
			<rect x="16.586" y="11.595" transform="matrix(-0.2692 -0.9631 0.9631 -0.2692 -2.2551 51.614)" fill="#FFFFFF" width="3.739" height="30.136"/>
		
			<rect x="1.824" y="30.527" transform="matrix(-0.2691 -0.9631 0.9631 -0.2691 -24.9644 42.628)" fill="#FFFFFF" width="3.738" height="0.52"/>
		
			<rect x="32.958" y="20.668" transform="matrix(-0.963 0.2694 -0.2694 -0.963 71.2789 35.2941)" fill="#FFFFFF" width="0.52" height="3.739"/>
		<path fill="#FFFFFF" d="M9.051,40.623l2.68-0.749c0.365-0.102,0.579-0.48,0.477-0.845l-0.749-2.681
			c-0.102-0.365-0.48-0.578-0.845-0.477l-2.68,0.749c-0.365,0.103-0.578,0.48-0.477,0.846l0.749,2.681
			C8.308,40.512,8.687,40.725,9.051,40.623z"/>
	</g>
</g>
</svg>
