<?xml version="1.0" encoding="utf-8"?>
<!-- Generator: Adobe Illustrator 16.0.0, SVG Export Plug-In . SVG Version: 6.00 Build 0)  -->
<!DOCTYPE svg PUBLIC "-//W3C//DTD SVG 1.1//EN" "http://www.w3.org/Graphics/SVG/1.1/DTD/svg11.dtd">
<svg version="1.1" id="Capa_1" xmlns="http://www.w3.org/2000/svg" xmlns:xlink="http://www.w3.org/1999/xlink" x="0px" y="0px"
	 width="512px" height="512px" viewBox="0 0 512 512" enable-background="new 0 0 512 512" xml:space="preserve">
<g>
	<path fill="#FFFFFF" d="M255.992,0C114.838,0,0,114.838,0,256.008C0,397.162,114.823,512,255.992,512
		c8.73,0,15.783-7.068,15.783-15.768c0-8.714-7.053-15.783-15.783-15.783c-123.756,0-224.411-100.686-224.411-224.426
		c0-123.756,100.654-224.442,224.411-224.442c123.757,0,224.395,100.686,224.395,224.442c0,51.706-27.522,102.989-66.909,124.682
		c-14.31,7.867-29.826,11.77-46.377,11.927c9.937-5.925,18.541-13.901,24.936-23.995c1.254-1.896,2.916-3.543,3.73-5.627
		c5.141-12.367,5.596-26.395,8.699-39.435c3.809-16.708-73.007-49.261-79.684-28.446c-2.413,7.727-6.112,32.099-10.955,38.524
		c-4.311,5.721-14.938,3.024-21.583-2.633c-17.507-14.921-37.051-36.864-54.198-54.183l0.031-0.016
		c-0.439-0.455-0.972-0.973-1.442-1.427c-0.486-0.47-0.972-0.972-1.458-1.442l0,0c-17.335-17.131-39.277-36.644-54.183-54.198
		c-5.643-6.646-8.37-17.241-2.633-21.566c6.426-4.859,30.813-8.511,38.525-10.94c20.783-6.661-11.755-83.523-28.463-79.683
		c-13.04,3.056-27.067,3.526-39.434,8.652c-2.101,0.877-3.73,2.507-5.627,3.761c-43.87,27.82-49.528,95.341-6.708,145.636
		c16.316,19.247,33.337,37.867,50.86,56.048l-0.094,0.063c0.486,0.485,0.987,0.939,1.489,1.41c0.47,0.486,0.924,0.972,1.379,1.488
		l0.094-0.094c18.181,17.523,39.732,43.321,74.746,66.69c73.711,49.229,130.276,35.484,163.598,17.209
		c57.521-31.676,83.257-99.337,83.257-152.329C512,114.838,397.146,0,255.992,0z"/>
</g>
</svg>
