<?xml version="1.0" encoding="utf-8"?>
<!-- Generator: Adobe Illustrator 16.0.0, SVG Export Plug-In . SVG Version: 6.00 Build 0)  -->
<!DOCTYPE svg PUBLIC "-//W3C//DTD SVG 1.1//EN" "http://www.w3.org/Graphics/SVG/1.1/DTD/svg11.dtd">
<svg version="1.1" id="Layer_1" xmlns="http://www.w3.org/2000/svg" xmlns:xlink="http://www.w3.org/1999/xlink" x="0px" y="0px"
	 width="50px" height="50px" viewBox="0 0 50 50" enable-background="new 0 0 50 50" xml:space="preserve">
<g>
	<path fill="#FFFFFF" d="M47.913,4.166l-2.09-2.085c-1.008-1.005-2.643-1.007-3.65,0l-2.548,2.548l5.572,5.894l2.711-2.712
		C48.918,6.806,48.918,5.171,47.913,4.166z"/>
	<path fill="#FFFFFF" d="M38.028,19.873V44.27H5.737V11.979h24.36L34.5,7.575H4.636c-1.816,0-3.302,1.486-3.302,3.303V45.37
		c0,1.817,1.486,3.303,3.302,3.303h34.493c1.816,0,3.303-1.485,3.303-3.303V15.469L38.028,19.873z"/>
	<path fill="#FFFFFF" d="M22.376,21.88v0.02l-0.18,0.18c-0.04,0.035-0.065,0.078-0.083,0.125l-2.603,6.68
		c-0.008,0.008-0.015,0.011-0.02,0.016l-0.735,1.891c-0.052,0.135-0.022,0.29,0.083,0.395c0.103,0.103,0.26,0.133,0.393,0.08
		l1.868-0.73c0.005-0.005,0.01-0.012,0.015-0.018l6.67-2.64c0.045-0.022,0.088-0.048,0.125-0.085l0.178-0.18h0.022l16.198-16.2
		L38.734,5.52L22.376,21.88z M21.756,29.498c0.2-0.5,0.205-0.947-0.045-1.197c-0.252-0.25-0.702-0.248-1.205-0.043
		c0.783-2.025,1.846-4.775,2.121-5.488c0.485-0.003,1.563-0.008,1.978-0.01l0.01,0.01l-0.042,0.042l-0.207,2.815l2.813-0.21
		l0.04-0.042c0,0.41,0.003,1.458,0.003,1.96C26.337,27.686,23.701,28.729,21.756,29.498z"/>
</g>
</svg>
